#define timeout_cursor_width 32
#define timeout_cursor_height 32
static unsigned char timeout_cursor_bits[] = {
  0xff, 0x1f, 0xf8, 0xff, 0xff, 0x1f, 0xf8, 0xff, 0xff, 0x1f, 0xf8, 0xff, 
  0xff, 0x1f, 0xf8, 0xff, 0xff, 0x1f, 0xf8, 0xff, 0xff, 0x1f, 0xf8, 0xff, 
  0xff, 0x1f, 0xf8, 0xff, 0xff, 0x1f, 0xf8, 0xff, 0xff, 0x1f, 0xf8, 0xff, 
  0xff, 0x1f, 0xf8, 0xff, 0xff, 0x1f, 0xf8, 0xff, 0xff, 0x1f, 0xf8, 0xff, 
  0xff, 0x1f, 0xf8, 0xff, 0x00, 0x00, 0x00, 0x00, 0x00, 0x00, 0x00, 0x00, 
  0x00, 0x00, 0x00, 0x00, 0x00, 0x00, 0x00, 0x00, 0x00, 0x00, 0x00, 0x00, 
  0x00, 0x00, 0x00, 0x00, 0xff, 0x1f, 0xf8, 0xff, 0xff, 0x1f, 0xf8, 0xff, 
  0xff, 0x1f, 0xf8, 0xff, 0xff, 0x1f, 0xf8, 0xff, 0xff, 0x1f, 0xf8, 0xff, 
  0xff, 0x1f, 0xf8, 0xff, 0xff, 0x1f, 0xf8, 0xff, 0xff, 0x1f, 0xf8, 0xff, 
  0xff, 0x1f, 0xf8, 0xff, 0xff, 0x1f, 0xf8, 0xff, 0xff, 0x1f, 0xf8, 0xff, 
  0xff, 0x1f, 0xf8, 0xff, 0xff, 0x1f, 0xf8, 0xff  };
